<svg width="122" height="79" viewBox="0 0 122 79" fill="none" xmlns="http://www.w3.org/2000/svg">
<path d="M35.5216 30C36.5787 30.0189 37.5037 30.2643 38.2966 30.7362C39.0894 31.2081 39.6935 31.8405 40.1088 32.6334C40.543 33.4262 40.7601 34.3229 40.7601 35.3234C40.7601 36.0596 40.6185 36.7581 40.3353 37.4188C40.071 38.0606 39.7029 38.6364 39.231 39.1461C39.9106 39.6557 40.4391 40.2881 40.8167 41.0432C41.2131 41.7983 41.4113 42.6289 41.4113 43.535C41.4113 44.4978 41.1754 45.385 40.7034 46.1967C40.2315 47.0084 39.5991 47.6597 38.8063 48.1505C38.0134 48.6225 37.1356 48.8584 36.1729 48.8584H30V30H35.5216ZM32.4918 32.5484V38.155H35.5216C36.2956 38.155 36.9468 37.8813 37.4754 37.3338C38.004 36.7864 38.2683 36.1162 38.2683 35.3234C38.2683 34.5306 38.004 33.8698 37.4754 33.3413C36.9657 32.8127 36.3145 32.5484 35.5216 32.5484H32.4918ZM32.4918 40.7034V46.31H36.1729C36.9468 46.31 37.5981 46.0457 38.1267 45.5171C38.6552 44.9697 38.9195 44.309 38.9195 43.535C38.9195 42.7422 38.6552 42.072 38.1267 41.5246C37.5981 40.9771 36.9468 40.7034 36.1729 40.7034H32.4918Z" fill="#0065FC"/>
<path d="M50.8452 49C49.8824 49 48.9669 48.8112 48.0985 48.4337C47.2302 48.0561 46.4656 47.537 45.8049 46.8763C45.1442 46.2156 44.6251 45.4511 44.2476 44.5827C43.87 43.7144 43.6812 42.7988 43.6812 41.8361C43.6812 40.8544 43.87 39.92 44.2476 39.0328C44.6251 38.1456 45.1442 37.3716 45.8049 36.7109C46.4656 36.0502 47.2302 35.5405 48.0985 35.1818C48.9669 34.8043 49.8824 34.6155 50.8452 34.6155C51.8268 34.6155 52.7612 34.8043 53.6485 35.1818C54.5357 35.5405 55.3097 36.0502 55.9704 36.7109C56.6311 37.3716 57.1408 38.1456 57.4994 39.0328C57.877 39.92 58.0657 40.8544 58.0657 41.8361C58.0657 42.7988 57.877 43.7144 57.4994 44.5827C57.1408 45.4511 56.6311 46.2156 55.9704 46.8763C55.3097 47.537 54.5357 48.0561 53.6485 48.4337C52.7612 48.8112 51.8268 49 50.8452 49ZM50.8452 37.1356C49.5804 37.1356 48.495 37.5887 47.5888 38.4948C47.1547 38.929 46.8149 39.4386 46.5695 40.0238C46.3241 40.609 46.2014 41.2131 46.2014 41.8361C46.2014 42.459 46.3241 43.0537 46.5695 43.62C46.8149 44.1863 47.1547 44.6865 47.5888 45.1207C48.023 45.5549 48.5138 45.8947 49.0613 46.1401C49.6276 46.3855 50.2222 46.5082 50.8452 46.5082C51.4681 46.5082 52.0722 46.3855 52.6574 46.1401C53.2426 45.8947 53.7428 45.5549 54.1581 45.1207C54.5734 44.6865 54.9038 44.1863 55.1492 43.62C55.3946 43.0537 55.5173 42.459 55.5173 41.8361C55.5173 41.2131 55.3946 40.609 55.1492 40.0238C54.9038 39.4386 54.5734 38.929 54.1581 38.4948C53.7428 38.0606 53.2426 37.7303 52.6574 37.5037C52.0911 37.2583 51.487 37.1356 50.8452 37.1356Z" fill="#0065FC"/>
<path d="M66.9388 49C65.9761 49 65.0605 48.8112 64.1922 48.4337C63.3238 48.0561 62.5593 47.537 61.8986 46.8763C61.2379 46.2156 60.7187 45.4511 60.3412 44.5827C59.9636 43.7144 59.7749 42.7988 59.7749 41.8361C59.7749 40.8544 59.9636 39.92 60.3412 39.0328C60.7187 38.1456 61.2379 37.3716 61.8986 36.7109C62.5593 36.0502 63.3238 35.5405 64.1922 35.1818C65.0605 34.8043 65.9761 34.6155 66.9388 34.6155C67.9204 34.6155 68.8549 34.8043 69.7421 35.1818C70.6293 35.5405 71.4033 36.0502 72.064 36.7109C72.7247 37.3716 73.2344 38.1456 73.5931 39.0328C73.9706 39.92 74.1594 40.8544 74.1594 41.8361C74.1594 42.7988 73.9706 43.7144 73.5931 44.5827C73.2344 45.4511 72.7247 46.2156 72.064 46.8763C71.4033 47.537 70.6293 48.0561 69.7421 48.4337C68.8549 48.8112 67.9204 49 66.9388 49ZM66.9388 37.1356C65.674 37.1356 64.5886 37.5887 63.6825 38.4948C63.2483 38.929 62.9085 39.4386 62.6631 40.0238C62.4177 40.609 62.295 41.2131 62.295 41.8361C62.295 42.459 62.4177 43.0537 62.6631 43.62C62.9085 44.1863 63.2483 44.6865 63.6825 45.1207C64.1167 45.5549 64.6075 45.8947 65.1549 46.1401C65.7212 46.3855 66.3159 46.5082 66.9388 46.5082C67.5618 46.5082 68.1658 46.3855 68.751 46.1401C69.3362 45.8947 69.8365 45.5549 70.2518 45.1207C70.6671 44.6865 70.9974 44.1863 71.2428 43.62C71.4882 43.0537 71.6109 42.459 71.6109 41.8361C71.6109 41.2131 71.4882 40.609 71.2428 40.0238C70.9974 39.4386 70.6671 38.929 70.2518 38.4948C69.8365 38.0606 69.3362 37.7303 68.751 37.5037C68.1847 37.2583 67.5806 37.1356 66.9388 37.1356Z" fill="#0065FC"/>
<path d="M83.5005 48.8584L79.1965 43.62V48.8584H76.7047V30.0283H79.1965V38.155L83.0475 34.5306H86.7569L80.046 40.7601L86.7852 48.8584H83.5005Z" fill="#0065FC"/>
<path d="M89.7871 32.6617C89.4285 32.6617 89.117 32.539 88.8527 32.2936C88.6073 32.0293 88.4846 31.7178 88.4846 31.3592C88.4846 31.0005 88.6073 30.6985 88.8527 30.4531C89.117 30.1888 89.4285 30.0566 89.7871 30.0566C90.1458 30.0566 90.4478 30.1888 90.6932 30.4531C90.9575 30.6985 91.0897 31.0005 91.0897 31.3592C91.0897 31.7178 90.9575 32.0293 90.6932 32.2936C90.4478 32.539 90.1458 32.6617 89.7871 32.6617ZM88.6262 48.8584V34.7004H91.0047V48.8584H88.6262Z" fill="#0065FC"/>
<path d="M68.4338 40.0097C68.4338 40.8094 67.7856 41.4577 66.9859 41.4577C66.1862 41.4577 65.5379 40.8094 65.5379 40.0097C65.5379 39.21 66.1862 38.5618 66.9859 38.5618C67.7856 38.5618 68.4338 39.21 68.4338 40.0097Z" fill="#0065FC"/>
<path d="M65.5379 44.6755L66.237 39.5271H67.8347L68.4339 44.6755H65.5379Z" fill="#0065FC"/>
</svg>
